<svg width="203" height="48" viewBox="0 0 203 48" fill="none" xmlns="http://www.w3.org/2000/svg">
<path d="M89.8465 41.5644C88.0442 41.5644 86.4672 41.2715 85.1155 40.6857C83.7863 40.1 82.6824 39.3002 81.8037 38.2864C80.9251 37.2501 80.2718 36.0673 79.8437 34.7381C79.4157 33.4089 79.2017 32.0121 79.2017 30.5478C79.2017 29.0608 79.4607 27.6866 79.9789 26.425C80.5196 25.1408 81.2518 24.0257 82.1755 23.0794C83.1217 22.1332 84.2256 21.401 85.4872 20.8829C86.7488 20.3422 88.1231 20.0718 89.61 20.0718C91.1645 20.0718 92.6063 20.3422 93.9355 20.8829C95.2647 21.4236 96.425 22.1783 97.4162 23.147C98.4075 24.1158 99.1735 25.2535 99.7142 26.5601C100.277 27.8668 100.559 29.2861 100.559 30.8181C100.559 34.22 99.6241 36.8671 97.7542 38.7595C95.8843 40.6294 93.2484 41.5644 89.8465 41.5644ZM89.8127 36.0899C91.4574 36.0899 92.7077 35.628 93.5638 34.7043C94.4424 33.7806 94.8817 32.4514 94.8817 30.7167C94.8817 29.1622 94.4086 27.9119 93.4624 26.9657C92.5162 26.0195 91.2771 25.5463 89.7452 25.5463C88.8215 25.5463 87.9766 25.7942 87.2107 26.2898C86.4447 26.7629 85.8251 27.405 85.352 28.216C84.9015 29.0045 84.6762 29.8832 84.6762 30.8519C84.6762 31.708 84.8451 32.5416 85.1831 33.3526C85.5435 34.1636 86.1068 34.8282 86.8727 35.3464C87.6387 35.842 88.6187 36.0899 89.8127 36.0899Z" fill="white"/>
<path d="M111.048 38.9623C109.629 38.9623 108.423 38.7483 107.432 38.3202C106.441 37.8922 105.618 37.3402 104.965 36.6643C104.334 35.9659 103.839 35.2225 103.478 34.434C103.118 33.6229 102.87 32.8457 102.735 32.1022C102.6 31.3363 102.532 30.6717 102.532 30.1084C102.532 29.0271 102.678 27.9119 102.971 26.7629C103.287 25.6139 103.805 24.5438 104.526 23.5525C105.269 22.5613 106.272 21.7615 107.533 21.1532C108.818 20.5449 110.428 20.2408 112.366 20.2408C112.952 20.2408 113.492 20.2859 113.988 20.376C116.37 20.8091 119.191 21.7622 120.375 24C121.401 25.9385 121.118 27.833 121.118 29.9733C121.118 31.0772 121.118 32.2374 121.118 33.454C121.141 34.648 121.152 35.9547 121.152 37.374C121.152 39.3115 120.893 40.8998 120.375 42.1388C119.857 43.3779 119.192 44.3354 118.381 45.0113C117.57 45.6871 116.725 46.1715 115.847 46.4644C114.99 46.7798 114.191 46.96 113.447 47.0051C112.726 47.0727 112.186 47.1065 111.825 47.1065C110.946 47.1065 109.978 47.0051 108.919 46.8023C107.86 46.6221 106.801 46.3179 105.742 45.8899C105.094 45.6415 104.479 45.3465 103.898 45.0051C102.825 44.3745 102.857 44.2586 103.378 43.1739C105.175 39.4318 105.643 40.3924 108.953 41.3954C109.696 41.6432 110.62 41.7671 111.724 41.7671C112.85 41.7671 113.684 41.5644 114.224 41.1588C114.765 40.7759 115.114 40.2577 115.272 39.6044C115.452 38.9735 115.554 38.2752 115.576 37.5092C114.81 38.0724 114.033 38.4554 113.244 38.6581C112.456 38.8609 111.724 38.9623 111.048 38.9623ZM107.601 29.6353C107.601 30.9195 107.95 31.9333 108.649 32.6767C109.369 33.4202 110.349 33.7919 111.589 33.7919C113.323 33.7919 114.619 32.7894 115.475 30.7843C115.475 30.0634 115.464 29.3312 115.441 28.5877C115.441 27.8218 115.433 27.2561 115 26.5C114.373 25.4049 113.47 25.4788 112.298 25.4788C110.856 25.4788 109.707 25.8618 108.851 26.6277C108.018 27.3712 107.601 28.3737 107.601 29.6353Z" fill="white"/>
<path d="M125.625 40.4082C125.57 38.7363 125.522 37.1729 125.484 35.7181C125.422 31.1194 125.405 27.1466 126.5 25C128.557 20.969 133.315 20.1394 137.649 20.1394C139.068 20.1394 140.229 20.376 141.13 20.8491C142.054 21.3222 142.774 21.9755 143.293 22.8091C143.833 23.6427 144.216 24.6001 144.442 25.6815C144.689 26.7404 144.847 27.8893 144.915 29.1284C144.982 30.345 145.016 31.5728 145.016 32.8119C145.016 34.1636 144.994 35.459 144.949 36.6981C144.903 37.9372 144.858 38.9735 144.813 39.8071C144.731 41.3223 144.761 41.294 143.275 41.294H141C139.462 41.294 139.022 41.5934 139.096 40C139.121 39.4681 139.145 38.9194 139.17 38.354C139.215 37.2951 139.26 36.2588 139.305 35.245C139.35 34.2087 139.373 33.2737 139.373 32.4402C139.373 27.6415 138.595 25.2422 137.041 25.2422C135.757 25.2422 133.059 25.5013 132 26.6277C130.833 27.8712 130.924 30.028 130.924 31.7981C130.924 32.8795 130.924 34.0059 130.924 35.1774C130.947 36.3264 130.969 37.4303 130.992 38.4892C131.009 38.8801 131.024 39.2519 131.038 39.6044C131.093 41.0042 131.251 41.1917 129.832 41.2005L126.621 41.2204C125.744 41.2259 125.654 41.2944 125.625 40.4082Z" fill="white"/>
<path d="M148.997 39C148.975 38.2553 148.958 37.488 148.946 36.6981C148.924 35.0986 148.913 33.499 148.913 31.8995C148.913 29.8043 148.935 27.7654 148.98 25.7829C149.006 24.6357 149.036 23.5489 149.07 22.5225C149.135 20.515 149.048 20.3766 151.063 20.3648L153.012 20.3535C154.925 20.3424 154.929 20.2648 154.848 22.1598C154.822 22.781 154.803 23.4592 154.793 24.1946C154.77 25.7041 154.759 27.2923 154.759 28.9595C154.759 30.6041 154.77 32.2262 154.793 33.8257C154.815 35.4252 154.838 36.8784 154.86 38.185C154.921 39.9165 155.562 41.0743 153.754 41.2109C151.232 41.4013 149.085 41.9065 148.997 39Z" fill="white"/>
<path d="M158.345 38C158.082 36.6211 160.577 35.7912 161.608 34.9409C162.531 34.1749 163.478 33.3413 164.446 32.4402C165.415 31.539 166.35 30.6491 167.251 29.7705C168.152 28.8694 168.941 28.0583 169.617 27.3374C170.293 26.6165 170.788 26.0532 171.104 25.6477C171.216 25.49 171.295 25.3774 171.34 25.3098C171.385 25.2197 171.408 25.1634 171.408 25.1408C171.408 25.1634 171.25 25.1746 170.935 25.1746C170.619 25.1746 170.338 25.1746 170.09 25.1746C169.279 25.1746 168.288 25.2422 167.116 25.3774C165.967 25.49 164.728 25.6703 163.399 25.9181C160.431 26.4714 159.555 27.7042 158.958 24.5C158.16 20.2174 161.014 20.9082 165.021 20.4774C167.139 20.2295 169.132 20.1056 171.002 20.1056C171.723 20.1056 172.489 20.1282 173.3 20.1732C174.134 20.2183 174.922 20.3534 175.666 20.5787C176.409 20.7815 177.017 21.1307 177.491 21.6263C177.964 22.0994 178.2 22.764 178.2 23.6201C178.2 24.2284 177.941 24.9831 177.423 25.8843C176.927 26.7629 176.218 27.7429 175.294 28.8243C174.393 29.8832 173.334 30.9983 172.117 32.1698C170.923 33.3413 169.628 34.5128 168.231 35.6843C169.47 35.6167 170.698 35.583 171.915 35.583C173.649 35.583 175.181 35.6167 176.511 35.6843C178.279 35.7743 179.095 35.4669 179.186 37.2328C179.336 40.1358 179.685 41.2056 176.139 41.0913C174.742 41.0687 173.199 41.0575 171.509 41.0575C169.932 41.0575 168.321 41.0687 166.677 41.0913C165.055 41.1363 163.556 41.1814 162.182 41.2264C158.839 41.3936 158.979 41.3228 158.345 38Z" fill="white"/>
<path d="M192.558 41.4968C190.395 41.4968 188.491 41.0687 186.847 40.2126C185.225 39.3791 183.952 38.2076 183.028 36.6981C182.127 35.1887 181.676 33.4427 181.676 31.4602C181.676 30.2661 181.879 29.0158 182.285 27.7091C182.69 26.3799 183.344 25.1408 184.245 23.9919C185.146 22.8429 186.329 21.9079 187.793 21.187C189.28 20.4661 191.082 20.1056 193.2 20.1056C194.732 20.1056 196.016 20.2746 197.052 20.6125C198.111 20.9505 198.967 21.3898 199.621 21.9305C200.297 22.4712 200.803 23.0456 201.141 23.6539C201.502 24.2622 201.738 24.848 201.851 25.4112C201.986 25.9519 202.054 26.4024 202.054 26.7629C202.054 28.9482 201.13 30.6379 199.283 31.8319C197.458 33.0034 194.867 33.5892 191.51 33.5892C190.744 33.5892 190.012 33.5554 189.314 33.4878C188.638 33.4202 188.007 33.3413 187.421 33.2512C187.849 34.3777 188.559 35.2112 189.55 35.7519C190.542 36.2701 191.567 36.5292 192.625 36.5292C198.5 36.5 199.992 33.4878 202.054 36.0193C203.955 38.3535 199.023 40.3178 197.323 40.8547C196.039 41.2828 194.45 41.4968 192.558 41.4968ZM193.301 25.1746C191.972 25.1746 190.801 25.5126 189.787 26.1884C188.773 26.8643 188.03 27.7542 187.556 28.8581C188.12 28.9482 188.672 29.0271 189.212 29.0946C189.776 29.1397 190.328 29.1622 190.868 29.1622C191.364 29.1622 191.927 29.1172 192.558 29.0271C193.211 28.9369 193.842 28.8018 194.45 28.6215C195.081 28.4413 195.599 28.216 196.005 27.9457C196.41 27.6528 196.613 27.3149 196.613 26.9319C196.613 26.7516 196.523 26.5264 196.343 26.256C196.163 25.9857 195.836 25.7378 195.363 25.5126C194.89 25.2873 194.202 25.1746 193.301 25.1746Z" fill="white"/>
<path d="M62.8344 44C60.0214 44 57.5773 43.3356 55.5022 42.0067C53.427 40.7025 51.8245 38.8568 50.6947 36.4698C49.5649 34.0828 49 31.2651 49 28.0168C49 26.7864 49.1383 25.4206 49.415 23.9195C49.7148 22.3937 50.1875 20.8803 50.8331 19.3792C51.4787 17.8535 52.3433 16.4631 53.427 15.2081C54.5107 13.953 55.8365 12.9441 57.4044 12.1812C58.9723 11.3937 60.8169 11 62.9381 11C64.7597 11 66.3506 11.2461 67.711 11.7383C69.0714 12.2058 70.2473 12.8087 71.2388 13.547C72.2302 14.2606 73.0488 15.0112 73.6944 15.7987C75.4088 17.8178 76.4105 19.0858 74.2106 21.0403C72.3508 22.6926 71.3949 23.3794 69.3366 20.5235C68.6448 19.5391 67.7917 18.7271 66.7772 18.0872C65.7627 17.4474 64.506 17.1275 63.0073 17.1275C61.4625 17.1275 60.1828 17.4966 59.1683 18.2349C58.1538 18.9732 57.3467 19.9083 56.7473 21.0403C56.1708 22.1723 55.7673 23.3781 55.5367 24.6577C55.3062 25.9128 55.1909 27.0817 55.1909 28.1644C55.1909 29.321 55.3062 30.4653 55.5367 31.5973C55.7673 32.7293 56.1593 33.7629 56.7127 34.698C57.2891 35.6331 58.05 36.3837 58.9953 36.9497C59.9638 37.4911 61.1743 37.7617 62.6269 37.7617C64.2409 37.7617 65.5552 37.4541 66.5697 36.8389C67.6073 36.2237 68.4719 35.3624 69.1636 34.255C70.865 31.4707 71.2181 30.3621 74.0952 31.7476C77.6313 33.4505 75.5668 35.985 73.3485 38.8691C72.0804 40.5179 70.5932 41.7852 68.8869 42.6711C67.1807 43.557 65.1632 44 62.8344 44Z" fill="white"/>
<path fill-rule="evenodd" clip-rule="evenodd" d="M18.8645 0C17.6118 0 16.5963 0.901637 16.5963 2.01386C16.5963 4.11933 16.7125 5.78811 16.1049 7.8315C15.7918 8.88445 16.1754 10.151 17.3106 10.6846C18.0129 11.0147 18.8525 11.0469 19.6258 10.9563C19.763 10.9402 20.2186 10.8868 20.668 10.6652C22.5441 9.73977 22.9591 6.75101 22.999 5.08531C23.0459 3.13208 21.3838 0 18.8645 0Z" fill="white"/>
<path d="M10.4598 18.4771C10.1852 19.0838 9.49098 20.0678 8.13947 20.1218C5.98454 20.208 3.45191 19.5901 1.85802 18.0203C1.17704 17.3496 0.878975 16.3982 1.04998 15.4577C1.80149 11.3244 10.865 10.2947 10.865 14.6383C10.865 15.9235 11.0066 17.2691 10.4598 18.4771Z" fill="white"/>
<path d="M28.4332 17.2986C27.8145 16.2467 27.954 15.0333 28.2621 14.227C29.554 10.8459 36.9384 8.08561 39.3716 11.7088C39.9804 12.6154 39.8395 13.7505 39.2927 14.6509C38.1425 16.5446 35.3582 18.8421 33.1156 18.8421C31.6372 18.8421 29.2632 18.7094 28.4332 17.2986Z" fill="white"/>
<path d="M26.912 29.2011C28.1499 28.5247 29.4975 27.8804 30.7088 27.3013C32.7779 26.312 35.0044 25.7351 37.1184 24.9286C38.4686 24.0488 40.6309 24.8684 40.6309 26.6031C40.6309 27.5139 40.0332 28.7855 39.4436 29.438C38.7593 30.1952 37.7976 30.7032 37.0221 31.0438C36.1973 31.4061 35.3222 31.688 34.6207 31.8969C32.8093 32.4361 31.3116 33.0566 29.7396 34.091C29.2604 34.4063 29.022 34.6201 28.9136 34.766C28.1721 35.7641 27.8345 37.1289 27.7388 38.8713C27.6917 39.7286 27.7052 40.6198 27.7338 41.5445C27.7407 41.7677 27.7486 41.996 27.7566 42.2269L27.7566 42.2272L27.7566 42.2272C27.7807 42.9213 27.8056 43.6384 27.8056 44.3075C27.8056 45.4121 26.9102 46.3075 25.8056 46.3075C25.0176 46.3075 24.4665 46.4307 23.6786 46.4307C22.5741 46.4307 21.6786 45.5353 21.6786 44.4307C21.6786 41.5538 21.8953 38.583 21.6714 35.7158C21.6338 35.2337 21.5036 33.567 22.6503 32.2867C23.7393 31.0708 25.3628 30.0475 26.912 29.2011Z" fill="white"/>
<path d="M3.7985 27.0269C6.42759 27.4419 9.00133 28.342 10.8109 29.235C14.0109 30.8143 14.5809 33.4715 14.8991 34.9555C15.5005 37.7592 17 40.3579 17 43.2647C17 44.4257 14.1248 46 12.8589 46C9.69354 46 9.10985 37.013 8.00343 35.0868C6.49488 32.4605 2.84393 32.9313 0.576393 30.9575C-1.27901 29.3424 1.76275 26.7055 3.7985 27.0269Z" fill="white"/>
<path d="M15.974 16.6076C16.9187 15.6585 18.3108 14.683 19.9556 14.683C22.2215 14.683 24.6514 17.0422 25.6302 18.9225C26.261 20.1344 26.4651 21.554 25.9275 23.1668C25.2304 25.258 23.1807 26.1901 21.7603 26.6215C20.2042 27.0941 18.5409 27.2303 17.4741 27.2303C16.5606 27.2303 15.6652 27.0416 14.8931 26.5575C14.0976 26.0589 13.5817 25.3387 13.3081 24.5505C12.8004 23.0877 13.1372 21.4734 13.6255 20.227C14.14 18.9141 14.9751 17.6111 15.974 16.6076Z" fill="white"/>
<circle cx="151.755" cy="12.7548" r="3.75481" fill="white"/>
</svg>
